<svg width="559" height="557" viewBox="0 0 559 557" fill="none" xmlns="http://www.w3.org/2000/svg">
<rect width="559" height="557" fill="#F5F5F5"/>
<path d="M279.5 0L558.793 468.75H0.206818L279.5 0Z" fill="#E72A00"/>
<path d="M279 45L521.487 446.25H36.5129L279 45Z" fill="white"/>
<path d="M267 91H292V384H267V91Z" fill="black"/>
<ellipse cx="279.5" cy="415" rx="20.5" ry="20" fill="black"/>
<rect x="278.989" y="181" width="137.54" height="139.638" transform="rotate(44.5662 278.989 181)" fill="#C52F00"/>
<rect x="277.963" y="195" width="118.936" height="119.73" transform="rotate(44.5292 277.963 195)" fill="white"/>
<ellipse cx="279.489" cy="279" rx="43.5" ry="44" fill="#E72A00"/>
<path d="M293.305 278.722L271.28 289.432L271.844 266.923L293.305 278.722Z" fill="black"/>
<rect y="468" width="559" height="89" fill="black"/>
<rect x="9" y="477" width="540" height="71" fill="white"/>
<path d="M123.208 530L125.944 521.12H118.936L116.2 530H111.64L114.376 521.12H109.72V516.944H115.624L117.64 510.416H113.08V506.24H118.888L121.624 497.36H126.184L123.448 506.24H130.456L133.192 497.36H137.752L135.016 506.24H139.672V510.416H133.768L131.752 516.944H136.312V521.12H130.504L127.768 530H123.208ZM120.184 516.944H127.192L129.208 510.416H122.2L120.184 516.944ZM144.918 530V497.36H150.198C152.726 500.656 155.126 504.144 157.398 507.824C159.67 511.472 161.734 515.232 163.59 519.104L163.158 509.36V497.36H168.678V530H163.398C161.35 525.968 159.222 521.92 157.014 517.856C154.838 513.76 152.518 509.904 150.054 506.288L150.438 517.52V530H144.918ZM200.772 510.224V517.088C200.772 521.248 199.732 524.528 197.652 526.928C195.572 529.296 192.532 530.48 188.532 530.48C184.5 530.48 181.444 529.296 179.364 526.928C177.316 524.528 176.292 521.248 176.292 517.088V510.224C176.292 506.064 177.316 502.8 179.364 500.432C181.444 498.064 184.5 496.88 188.532 496.88C192.532 496.88 195.572 498.064 197.652 500.432C199.732 502.8 200.772 506.064 200.772 510.224ZM194.868 510.224C194.868 507.6 194.356 505.632 193.332 504.32C192.308 502.976 190.708 502.304 188.532 502.304C186.356 502.304 184.756 502.976 183.732 504.32C182.708 505.632 182.196 507.6 182.196 510.224V517.088C182.196 519.712 182.708 521.696 183.732 523.04C184.756 524.384 186.356 525.056 188.532 525.056C190.708 525.056 192.308 524.384 193.332 523.04C194.356 521.696 194.868 519.712 194.868 517.088V510.224ZM224.826 530L222.81 523.616H211.626L209.61 530H203.898L214.794 497.36H219.882L230.826 530H224.826ZM214.746 513.632L213.258 518.336H221.13L219.642 513.632L217.242 505.376L214.746 513.632ZM236.278 530V497.36H247.318C251.222 497.36 254.198 498.448 256.246 500.624C258.294 502.8 259.318 506 259.318 510.224V517.088C259.318 521.344 258.294 524.56 256.246 526.736C254.198 528.912 251.222 530 247.318 530H236.278ZM247.078 502.88H242.038V524.48H247.078C249.35 524.48 250.966 523.92 251.926 522.8C252.918 521.68 253.414 519.776 253.414 517.088V510.224C253.414 507.568 252.918 505.68 251.926 504.56C250.966 503.44 249.35 502.88 247.078 502.88ZM272.694 530H266.934V497.36H272.694V530ZM286.116 517.088C286.116 519.424 286.628 521.344 287.652 522.848C288.676 524.32 290.356 525.056 292.692 525.056C293.652 525.056 294.644 524.928 295.668 524.672C296.724 524.416 298.02 523.984 299.556 523.376L301.332 528.368C299.604 529.136 298.004 529.68 296.532 530C295.092 530.32 293.7 530.48 292.356 530.48C289.668 530.48 287.412 529.904 285.588 528.752C283.796 527.6 282.452 526.016 281.556 524C280.66 521.984 280.212 519.68 280.212 517.088V510.224C280.212 507.632 280.66 505.328 281.556 503.312C282.452 501.296 283.796 499.728 285.588 498.608C287.412 497.456 289.668 496.88 292.356 496.88C293.668 496.88 295.028 497.04 296.436 497.36C297.844 497.648 299.38 498.16 301.044 498.896L299.268 503.984C297.796 503.376 296.564 502.944 295.572 502.688C294.58 502.432 293.62 502.304 292.692 502.304C290.356 502.304 288.676 503.04 287.652 504.512C286.628 505.984 286.116 507.888 286.116 510.224V517.088ZM311.522 517.088C311.522 519.424 312.034 521.344 313.058 522.848C314.082 524.32 315.762 525.056 318.098 525.056C319.058 525.056 320.05 524.928 321.074 524.672C322.13 524.416 323.426 523.984 324.962 523.376L326.738 528.368C325.01 529.136 323.41 529.68 321.938 530C320.498 530.32 319.106 530.48 317.762 530.48C315.074 530.48 312.818 529.904 310.994 528.752C309.202 527.6 307.858 526.016 306.962 524C306.066 521.984 305.618 519.68 305.618 517.088V510.224C305.618 507.632 306.066 505.328 306.962 503.312C307.858 501.296 309.202 499.728 310.994 498.608C312.818 497.456 315.074 496.88 317.762 496.88C319.074 496.88 320.434 497.04 321.842 497.36C323.25 497.648 324.786 498.16 326.45 498.896L324.674 503.984C323.202 503.376 321.97 502.944 320.978 502.688C319.986 502.432 319.026 502.304 318.098 502.304C315.762 502.304 314.082 503.04 313.058 504.512C312.034 505.984 311.522 507.888 311.522 510.224V517.088ZM338.506 530H332.746V497.36H338.506V530ZM370.6 510.224V517.088C370.6 521.248 369.56 524.528 367.48 526.928C365.4 529.296 362.36 530.48 358.36 530.48C354.328 530.48 351.272 529.296 349.192 526.928C347.144 524.528 346.12 521.248 346.12 517.088V510.224C346.12 506.064 347.144 502.8 349.192 500.432C351.272 498.064 354.328 496.88 358.36 496.88C362.36 496.88 365.4 498.064 367.48 500.432C369.56 502.8 370.6 506.064 370.6 510.224ZM364.696 510.224C364.696 507.6 364.184 505.632 363.16 504.32C362.136 502.976 360.536 502.304 358.36 502.304C356.184 502.304 354.584 502.976 353.56 504.32C352.536 505.632 352.024 507.6 352.024 510.224V517.088C352.024 519.712 352.536 521.696 353.56 523.04C354.584 524.384 356.184 525.056 358.36 525.056C360.536 525.056 362.136 524.384 363.16 523.04C364.184 521.696 364.696 519.712 364.696 517.088V510.224ZM378.215 530V497.36H383.495C386.023 500.656 388.423 504.144 390.695 507.824C392.967 511.472 395.031 515.232 396.887 519.104L396.455 509.36V497.36H401.975V530H396.695C394.647 525.968 392.519 521.92 390.311 517.856C388.135 513.76 385.815 509.904 383.351 506.288L383.735 517.52V530H378.215ZM418.085 525.152C421.797 525.152 423.653 523.776 423.653 521.024C423.653 519.904 423.365 519.024 422.789 518.384C422.245 517.744 421.221 517.184 419.717 516.704L415.781 515.408C411.077 513.872 408.725 510.784 408.725 506.144C408.725 503.456 409.557 501.248 411.221 499.52C412.917 497.76 415.557 496.88 419.141 496.88C420.645 496.88 422.133 497.056 423.605 497.408C425.077 497.728 426.645 498.256 428.309 498.992L426.533 503.936C424.997 503.328 423.685 502.896 422.597 502.64C421.541 502.352 420.453 502.208 419.333 502.208C417.861 502.208 416.693 502.48 415.829 503.024C414.997 503.536 414.581 504.48 414.581 505.856C414.581 506.88 414.869 507.728 415.445 508.4C416.053 509.04 417.045 509.584 418.421 510.032L422.357 511.328C424.725 512.128 426.501 513.296 427.685 514.832C428.901 516.336 429.509 518.336 429.509 520.832C429.509 523.712 428.597 526.048 426.773 527.84C424.949 529.6 422.085 530.48 418.181 530.48C416.645 530.48 415.045 530.304 413.381 529.952C411.749 529.568 409.957 528.928 408.005 528.032L409.781 523.088C411.573 523.856 413.093 524.4 414.341 524.72C415.621 525.008 416.869 525.152 418.085 525.152Z" fill="black"/>
</svg>
